<?xml version="1.0" standalone="no"?>
<!DOCTYPE svg PUBLIC "-//W3C//DTD SVG 20010904//EN"
 "http://www.w3.org/TR/2001/REC-SVG-20010904/DTD/svg10.dtd">
<svg version="1.0" xmlns="http://www.w3.org/2000/svg"
 width="375.000000pt" height="375.000000pt" viewBox="0 0 375.000000 375.000000"
 preserveAspectRatio="xMidYMid meet">
<metadata>
Created by potrace 1.14, written by Peter Selinger 2001-2017
</metadata>
<g transform="translate(0.000000,375.000000) scale(0.100000,-0.100000)"
fill="#000000" stroke="none">
<path d="M1438 3347 c-20 -18 -49 -57 -65 -87 -25 -49 -28 -65 -28 -150 0 -85
3 -101 28 -151 16 -31 46 -74 68 -96 l39 -41 -35 -58 c-54 -90 -85 -201 -86
-311 -1 -39 -7 -60 -26 -85 -13 -18 -33 -50 -44 -70 -23 -45 -42 -48 -126 -16
-75 27 -169 120 -206 200 -48 105 -70 198 -76 320 -1 33 -32 53 -60 39 -28
-15 -30 -30 -20 -117 20 -169 93 -339 183 -426 56 -55 104 -84 180 -109 54
-18 64 -24 57 -38 -14 -26 -50 -182 -55 -241 -3 -30 -5 -56 -6 -57 0 -2 -12
-3 -27 -3 -48 0 -190 -38 -257 -69 -82 -37 -143 -79 -206 -142 -91 -90 -120
-168 -71 -184 28 -9 44 2 74 50 78 122 259 230 422 251 22 3 46 7 53 9 6 3 13
-1 13 -8 13 -138 48 -274 95 -369 13 -26 24 -49 24 -51 0 -2 -19 -10 -42 -17
-160 -47 -267 -164 -331 -361 -24 -72 -30 -104 -42 -215 -6 -52 9 -84 39 -84
31 0 44 26 50 100 7 90 37 203 72 272 52 102 153 187 252 209 l49 12 90 -91
c77 -77 105 -97 185 -136 105 -50 176 -67 277 -67 77 0 98 4 190 33 98 31 178
84 269 176 80 80 85 84 118 77 98 -18 199 -94 254 -190 50 -88 85 -216 89
-327 2 -58 42 -86 76 -52 13 13 15 29 10 78 -7 66 -31 189 -44 221 -80 194
-174 297 -312 341 -30 9 -55 18 -57 19 -1 1 11 31 27 66 49 108 85 253 85 340
0 15 5 25 11 24 5 -2 30 -6 55 -9 164 -18 349 -128 428 -254 28 -44 48 -57 75
-46 80 30 -74 223 -250 313 -64 32 -185 69 -253 77 -33 4 -60 9 -61 13 0 3 -2
15 -3 26 -2 11 -6 46 -10 77 -4 32 -7 59 -7 60 0 2 -8 32 -19 68 -11 36 -20
70 -20 76 0 7 17 15 38 19 91 17 197 93 260 187 89 131 156 418 110 465 -25
25 -68 3 -68 -34 -2 -85 -38 -238 -75 -317 -54 -113 -167 -206 -270 -221 l-40
-6 -46 75 c-41 65 -47 81 -48 133 -1 103 -46 245 -103 325 l-19 28 25 25 c102
102 142 249 100 372 -43 126 -150 206 -170 127 -5 -19 2 -34 34 -68 91 -99 87
-239 -10 -350 l-34 -39 -55 40 c-110 82 -246 114 -375 87 -72 -14 -157 -54
-205 -95 -19 -16 -37 -29 -40 -29 -14 0 -73 76 -92 118 -40 92 -21 202 48 272
39 40 45 74 16 90 -28 15 -32 13 -73 -23z m530 -421 c166 -45 294 -196 328
-389 l7 -39 -49 38 c-225 172 -523 175 -748 6 l-59 -44 7 39 c20 112 75 216
153 291 98 93 236 131 361 98z m-118 -1115 l0 -768 -47 8 c-258 47 -445 240
-529 544 -11 39 -18 110 -20 200 -3 123 0 152 21 235 71 275 256 481 480 536
28 7 60 13 73 13 l22 1 0 -769z m132 758 c178 -37 346 -184 438 -383 59 -128
75 -208 75 -376 0 -120 -4 -160 -23 -229 -63 -231 -210 -413 -397 -494 -37
-16 -166 -47 -173 -42 -2 2 -4 1322 -2 1513 0 25 8 26 82 11z"/>
</g>
</svg>
